<svg xmlns="http://www.w3.org/2000/svg" xmlns:xlink="http://www.w3.org/1999/xlink" version="1.1" id="Layer_1" x="0px" y="0px" viewBox="119.93 536.2 692.839 438.6" style="enable-background:new 120 536.2 692.7 438.6;" xml:space="preserve" width="100%" height="100%"   preserveAspectRatio="xMidYMid meet"><rect id="svgEditorBackground" x="120" y="536.2000122070312" width="692.7000122070312" height="438.6000061035156" style="fill: none; stroke: none;"/>
<style type="text/css">
	.st0{fill:none;}
	.st1{fill:#FFFFFF;stroke:#5AAAFA;stroke-miterlimit:10;}
	.st2{fill:#231F20;}
	.st3{fill:#FCC215;}
	.st4{fill:#FFFFFF;}
	.st5{fill:#EEC02B;}
	.st6{fill:#1CB3A0;}
	.st7{fill:#975AD1;}
	.st8{fill:#FC42A0;}
	.st9{fill:none;stroke:#5AAAFA;stroke-width:2;stroke-miterlimit:10;}
	.st10{fill:#5AAAFA;}
	.st11{fill:#FD783D;}
	.st12{fill:#FDA578;}
	.st13{fill:#4AD5C3;}
	.st14{fill:#5DA51C;}
	.st15{fill:#FC5255;}
	.st16{fill:#E12826;}
	.st17{fill:#E8A723;}
	.st18{fill:#3EB890;}
	.st19{fill:#E01765;}
	.st20{fill:#472A49;}
	.st21{fill:#CC2027;}
	.st22{fill:#70CADB;}
	.st23{fill:#1A937D;}
	.st24{fill:#65863A;}
	.st25{fill:#1F293A;}
	.st26{fill:#4CB748;}
	.st27{fill:#2E3737;}
	.st28{fill:#586565;}
	.st29{fill:#FCE77F;}
	.st30{fill:#FCD432;}
	.st31{fill:#030506;}
	.st32{fill:#3D4747;}
	.st33{fill:#64BC46;}
	.st34{font-family:'Arial'; font-weight: bold}
	.st35{font-size:12px;}
	.st36{fill:#3B4B54;}
	.st37{fill:#0883A5;}
	.st38{fill:#00AED1;}
	.st39{fill:#027C68;}
	.st40{fill:#00B199;}
	.st41{fill:#243238;}
	.st42{fill:url(#SVGID_1_);}
	.st43{fill:url(#SVGID_2_);}
	.st44{fill:#0064FF;}
	.st45{fill:url(#SVGID_3_);}
	.st46{fill:url(#SVGID_4_);}
	.st47{fill:url(#SVGID_5_);}
	.st48{fill:url(#SVGID_6_);}
	.st49{fill:url(#SVGID_7_);}
	.st50{fill:url(#SVGID_8_);}
</style>
<g>
	<title>background</title>
	
</g>
<title>Layer 1</title>


<circle id="svg_4" class="st1" cx="272.7" cy="623.9" r="26.5" transform="matrix(1 0 0 1 -111.508 2.23017)"/>
<circle id="svg_5" class="st1" cx="273.1" cy="725" r="26.5" transform="matrix(1 0 0 1 -111.508 2.23017)"/>
<circle id="svg_6" class="st1" cx="272.8" cy="826.5" r="26.5" transform="matrix(1 0 0 1 -111.508 2.23017)"/>

<rect id="svg_8" x="210.7" y="537.4" class="st6" width="118.3" height="3.9" transform="matrix(0.734189 0 0 1 -24.54 2.23017)" ry="0" rx="0"/>




<g id="svg_13">
	<g id="svg_14">
		
		<g id="svg_16">
			
		</g>
	</g>
</g>
<line id="svg_18" class="st9" x1="272.7" y1="693.7" x2="272.7" y2="673.3" transform="matrix(1 0 0 1 -111.508 2.23017)"/>
<g id="svg_19" transform="matrix(1 0 0 1 -111.508 2.23017)">
	<g id="svg_20">
		<line id="svg_21" class="st9" x1="316.6" y1="623.7" x2="306.2" y2="623.7"/>
		<g id="svg_22">
			<polygon id="svg_23" class="st10" points="315.1,618.7 323.8,623.7 315.1,628.7    "/>
		</g>
	</g>
</g>






<g id="svg_142">
	
	<g id="XMLID_4_">
		<g id="XMLID_6_">
			
			
			
			
			
			
			
			
		</g>
	</g>
</g>




<line id="svg_171" class="st9" x1="272.7" y1="795.1" x2="272.7" y2="771.2" transform="matrix(1 0 0 1 -111.508 2.23017)"/>

<path id="svg_192_2_" class="st9" d="M670.3243408203125,604.837646484375" transform="matrix(0.649488 0 0 1 224.706 89.2068)"/>

<g id="svg_193">
	
</g>
<g id="svg_196">
	
	<g id="svg_198">
		
	</g>
</g>
<g id="svg_200">
	<g id="svg_201">
		
		
	</g>
</g>
<g id="svg_205">
	<g id="svg_206">
		
		<g id="svg_208">
			
		</g>
	</g>
</g>
<g id="svg_210" transform="matrix(1 0 0 1 -111.508 2.23017)">
	<g id="svg_211">
		<line id="svg_212" class="st9" x1="313.144" y1="725" x2="289.984" y2="725" transform="matrix(2.37053 0 0 1 -380.721 0)"/>
		<g id="svg_213">
			
		</g>
	</g>
</g>
<g id="svg_215">
	<g id="svg_216">
		
		<g id="svg_218">
			
		</g>
	</g>
</g>



<g id="svg_279" transform="matrix(0.649488 0 0 1 224.706 89.2068)">
	
	<g id="svg_281">
		
		
		
	</g>
</g>


<rect id="svg_318" x="331.005" y="537.2" class="st15" width="69" height="4.5" transform="matrix(1 0 0 1 -111.508 2.23017)" ry="0" rx="0"/>
<circle id="svg_326" class="st1" cx="606.1" cy="623.7" r="26.5" transform="matrix(1 0 0 1 -354.597 4.46034)"/>
<path id="svg_342" class="st27" d="M609.4,633.2l-6.6,0.4c-0.6,0-1.1-0.4-1.2-1l0,0c0-0.6,0.4-1.1,1-1.2l6.6-0.4  c0.6,0,1.1,0.4,1.2,1l0,0C610.5,632.7,610,633.2,609.4,633.2z" transform="matrix(1 0 0 1 -354.597 4.46034)"/>
<path id="svg_343" class="st27" d="M609.4,636.4l-6.6,0.4c-0.6,0-1.1-0.4-1.2-1l0,0c0-0.6,0.4-1.1,1-1.2l6.6-0.4  c0.6,0,1.1,0.4,1.2,1l0,0C610.5,635.9,610,636.4,609.4,636.4z" transform="matrix(1 0 0 1 -354.597 4.46034)"/>
<g id="svg_344" transform="matrix(1 0 0 1 -354.597 4.46034)">
	<path id="svg_345" class="st28" d="M602.6,638L602.6,638c0.1,1.9,1.6,3.3,3.4,3.3c1.9,0,3.5-1.7,3.5-3.7c0,0,0,0,0-0.1   C609.5,637.5,602.6,638,602.6,638z"/>
</g>
<g id="svg_346" transform="matrix(1 0 0 1 -354.597 4.46034)">
	<path id="svg_347" class="st29" d="M616.5,615.8c0-5.7-4.7-10.4-10.4-10.4s-10.4,4.7-10.4,10.4c0,2.7,1,5.1,2.6,6.9   c1.6,2.1,2.4,2.7,2.4,6.2v0.2c0,0.5,0.4,0.9,0.9,0.9h8.9c0.5,0,0.9-0.4,0.9-0.9v-0.2c0-3.6,0.9-4.1,2.7-6.5l0,0   C615.6,620.5,616.5,618.3,616.5,615.8z"/>
	<path id="svg_348" class="st29" d="M614.1,622.4l0.1-0.2C614.2,622.3,614.2,622.4,614.1,622.4L614.1,622.4z"/>
</g>
<path id="svg_349" class="st30" d="M616.5,615.8c0-5.7-4.7-10.4-10.4-10.4V630h4.5c0.5,0,0.9-0.4,0.9-0.9v-0.2  c0-3.6,0.9-4.1,2.7-6.5l0,0C615.6,620.5,616.5,618.3,616.5,615.8z" transform="matrix(1 0 0 1 -354.597 4.46034)"/>
<path id="svg_350" class="st31" d="M610.4,635.5v-0.4c0-0.5-0.5-0.9-1-0.8l-3.4,0.2v2.2l3.6-0.2C610.1,636.4,610.5,636,610.4,635.5z  " transform="matrix(1 0 0 1 -354.597 4.46034)"/>
<path id="svg_351" class="st31" d="M610.4,632.3V632c0-0.5-0.5-0.9-1-0.8l-3.4,0.2v2.1l3.6-0.2C610.1,633.2,610.5,632.8,610.4,632.3  z" transform="matrix(1 0 0 1 -354.597 4.46034)"/>
<path id="svg_352" class="st32" d="M609.6,637.5l-3.5,0.2v3.5C608,641.3,609.6,639.5,609.6,637.5L609.6,637.5z" transform="matrix(1 0 0 1 -354.597 4.46034)"/>
<circle id="svg_353" class="st7" cx="606" cy="615.9" r="6.5" transform="matrix(1 0 0 1 -354.597 4.46034)"/>
<path id="svg_354" class="st8" d="M606,609.4v13c3.6,0,6.5-2.9,6.5-6.5C612.5,612.4,609.6,609.4,606,609.4z" transform="matrix(1 0 0 1 -354.597 4.46034)"/>
<path id="svg_355" class="st33" d="M611,620.1c1.3-1.5,1.7-3.5,1.4-5.3l-6.4,1.1l-4.2,4.9C604.6,623.2,608.7,622.8,611,620.1z" transform="matrix(1 0 0 1 -354.597 4.46034)"/>
<g id="svg_356">
	<g id="svg_357">
		
		<g id="svg_359">
			
		</g>
	</g>
</g>

<g id="svg_363" transform="matrix(1 0 0 1 -111.508 2.23017)">
	
	<g id="svg_365">
		
	<polygon id="e1_366" class="st10" points="366.226 693.943 361.225 702.543 356.326 693.943" transform="matrix(1 0 0 -1.02 0 1410.89)"/></g>
</g>


<text id="headerSVG.code" transform="matrix(1 0 0 1 131.294 558.273)" class="st34 st35">CODE</text>


<text id="headerSVG.learn" transform="matrix(1 0 0 1 220.832 559.76)" class="st34 st35" x="" y="">LEARN</text>



<text id="headerSVG.repository1" transform="matrix(1 0 0 1 128.842 668.53)" class="st34 st35">REPOSITORY</text>







<text id="headerSVG.repository2" transform="matrix(1 0 0 1 128.842 768.53)" class="st34 st35">REPOSITORY</text>
<text id="headerSVG.repository3" transform="matrix(1 0 0 1 128.842 870.53)" class="st34 st35">REPOSITORY</text>



<text id="headerSVG.devops" transform="matrix(1 0 0 1 228.266 680.424)" class="st34 st35" x="" y="">DEVOPS</text>
<text id="headerSVG.insights" transform="matrix(1 0 0 1 225.266 693.168)" class="st34 st35" x="" y="">INSIGHTS</text>

<g transform="matrix(1 0 0 1 -111.508 2.23017)">
	<path class="st0" d="M265.5,625.9c-6-7.3,1.1-17,2.3-17"/>
	<path class="st36" d="M265.7,626.1c-0.1,0-0.3,0-0.4-0.1c-0.1,0-0.3,0-0.6-0.1c-4.1-0.6-6.4-3-7.5-4.8c-1.5,7.9,3.1,13.5,5.2,15.1   c2.3,0,5.9-0.9,8.5-4.8C269.5,631,266.6,629.6,265.7,626.1z"/>
	<path class="st37" d="M271,631.4c-0.1,0.1-0.2,0.2-0.2,0.3c-0.1,0.1-0.2,0.3-0.3,0.4c-2.5,3.2-5.8,4-7.9,4.1   c6.1,5.3,13.2,4.1,15.7,3.1c1.1-2,2.2-5.6,0.1-9.8C277.1,630.6,274.4,632.5,271,631.4z"/>
	<path class="st38" d="M278.3,629.5c0.1,0.1,0.1,0.2,0.1,0.4c0.1,0.1,0.1,0.3,0.2,0.5c1.5,3.8,0.6,7-0.4,8.9   c7.6-2.7,10.1-9.4,10.5-12.1c-1.2-2-3.7-4.7-8.4-5C280.6,623.8,280.9,627.1,278.3,629.5z"/>
	<path class="st39" d="M280.3,622.3c0.1,0,0.3,0,0.4,0.1c0.1,0,0.3,0,0.6,0.1c4.1,0.6,6.4,3,7.5,4.8c1.5-7.9-3.1-13.5-5.2-15.1   c-2.3,0-5.9,0.9-8.5,4.8C276.5,617.4,279.4,618.8,280.3,622.3z"/>
	<path class="st40" d="M275,617c0.1-0.1,0.2-0.2,0.2-0.3c0.1-0.1,0.2-0.3,0.3-0.4c2.5-3.2,5.8-4,7.9-4.1c-6.1-5.3-13.2-4.1-15.7-3.1   c-1.1,2-2.2,5.6-0.1,9.8C268.9,617.8,271.6,615.9,275,617z"/>
	<path class="st41" d="M267.7,618.9c-0.1-0.1-0.1-0.2-0.1-0.4c-0.1-0.1-0.1-0.3-0.2-0.5c-1.5-3.8-0.6-7,0.4-8.9   c-7.6,2.6-10.1,9.4-10.5,12c1.2,2,3.7,4.7,8.4,5C265.4,624.6,265.1,621.3,267.7,618.9z"/>
</g>
<g transform="matrix(1 0 0 1 -111.508 2.23017)">
	<path class="st0" d="M265.5,726.9c-6-7.3,1.1-17,2.3-17"/>
	<path class="st36" d="M265.7,727.1c-0.1,0-0.3,0-0.4-0.1c-0.1,0-0.3,0-0.6-0.1c-4.1-0.6-6.4-3-7.5-4.8c-1.5,7.9,3.1,13.5,5.2,15.1   c2.3,0,5.9-0.9,8.5-4.8C269.5,732,266.6,730.6,265.7,727.1z"/>
	<path class="st37" d="M271,732.4c-0.1,0.1-0.2,0.2-0.2,0.3c-0.1,0.1-0.2,0.3-0.3,0.4c-2.5,3.2-5.8,4-7.9,4.1   c6.1,5.3,13.2,4.1,15.7,3.1c1.1-2,2.2-5.6,0.1-9.8C277.1,731.6,274.4,733.5,271,732.4z"/>
	<path class="st38" d="M278.3,730.5c0.1,0.1,0.1,0.2,0.1,0.4c0.1,0.1,0.1,0.3,0.2,0.5c1.5,3.8,0.6,7-0.4,8.9   c7.6-2.7,10.1-9.4,10.5-12.1c-1.2-2-3.7-4.7-8.4-5C280.6,724.8,280.9,728.1,278.3,730.5z"/>
	<path class="st39" d="M280.3,723.3c0.1,0,0.3,0,0.4,0.1c0.1,0,0.3,0,0.6,0.1c4.1,0.6,6.4,3,7.5,4.8c1.5-7.9-3.1-13.5-5.2-15.1   c-2.3,0-5.9,0.9-8.5,4.8C276.5,718.4,279.4,719.8,280.3,723.3z"/>
	<path class="st40" d="M275,718c0.1-0.1,0.2-0.2,0.2-0.3c0.1-0.1,0.2-0.3,0.3-0.4c2.5-3.2,5.8-4,7.9-4.1c-6.1-5.3-13.2-4.1-15.7-3.1   c-1.1,2-2.2,5.6-0.1,9.8C268.9,718.8,271.6,716.9,275,718z"/>
	<path class="st41" d="M267.7,719.9c-0.1-0.1-0.1-0.2-0.1-0.4c-0.1-0.1-0.1-0.3-0.2-0.5c-1.5-3.8-0.6-7,0.4-8.9   c-7.6,2.6-10.1,9.4-10.5,12c1.2,2,3.7,4.7,8.4,5C265.4,725.6,265.1,722.3,267.7,719.9z"/>
</g>
<g transform="matrix(1 0 0 1 -111.508 2.23017)">
	<path class="st0" d="M265.5,827.9c-6-7.3,1.1-17,2.3-17"/>
	<path class="st36" d="M265.7,828.1c-0.1,0-0.3,0-0.4-0.1c-0.1,0-0.3,0-0.6-0.1c-4.1-0.6-6.4-3-7.5-4.8c-1.5,7.9,3.1,13.5,5.2,15.1   c2.3,0,5.9-0.9,8.5-4.8C269.5,833,266.6,831.6,265.7,828.1z"/>
	<path class="st37" d="M271,833.4c-0.1,0.1-0.2,0.2-0.2,0.3c-0.1,0.1-0.2,0.3-0.3,0.4c-2.5,3.2-5.8,4-7.9,4.1   c6.1,5.3,13.2,4.1,15.7,3.1c1.1-2,2.2-5.6,0.1-9.8C277.1,832.6,274.4,834.5,271,833.4z"/>
	<path class="st38" d="M278.3,831.5c0.1,0.1,0.1,0.2,0.1,0.4c0.1,0.1,0.1,0.3,0.2,0.5c1.5,3.8,0.6,7-0.4,8.9   c7.6-2.7,10.1-9.4,10.5-12.1c-1.2-2-3.7-4.7-8.4-5C280.6,825.8,280.9,829.1,278.3,831.5z"/>
	<path class="st39" d="M280.3,824.3c0.1,0,0.3,0,0.4,0.1c0.1,0,0.3,0,0.6,0.1c4.1,0.6,6.4,3,7.5,4.8c1.5-7.9-3.1-13.5-5.2-15.1   c-2.3,0-5.9,0.9-8.5,4.8C276.5,819.4,279.4,820.8,280.3,824.3z"/>
	<path class="st40" d="M275,819c0.1-0.1,0.2-0.2,0.2-0.3c0.1-0.1,0.2-0.3,0.3-0.4c2.5-3.2,5.8-4,7.9-4.1c-6.1-5.3-13.2-4.1-15.7-3.1   c-1.1,2-2.2,5.6-0.1,9.8C268.9,819.8,271.6,817.9,275,819z"/>
	<path class="st41" d="M267.7,820.9c-0.1-0.1-0.1-0.2-0.1-0.4c-0.1-0.1-0.1-0.3-0.2-0.5c-1.5-3.8-0.6-7,0.4-8.9   c-7.6,2.6-10.1,9.4-10.5,12c1.2,2,3.7,4.7,8.4,5C265.4,826.6,265.1,823.3,267.7,820.9z"/>
</g>

<line id="e2_line" x1="307.263" y1="828.353" x2="360.788" y2="828.344" style="stroke:#5AAAFA;fill:none;stroke-width:2;" transform="matrix(1 0 0 1 -111.508 2.23017)"/><line id="e3_line" x1="361.532" y1="696.772" x2="360.789" y2="827.609" style="stroke:#5AAAFA;fill:none;stroke-width:2;" transform="matrix(1 0 0 1 -111.508 2.23017)"/></svg>